<svg xmlns="http://www.w3.org/2000/svg" width="136.781" height="28" viewBox="0 0 136.781 28" fill="currentColor">
  <g transform="translate(0.308,0)"><path d="M 27.666 10.068 C 27.666 10.068 26.659 10.323 25.617 9.246 C 25.617 9.246 26.021 9.292 26.126 8.701 C 26.126 8.701 26.693 9.872 27.666 10.068 M 27.295 14.899 C 27.295 14.899 27.136 16.073 25.685 16.073 C 24.233 16.073 22.966 14.015 22.466 9.306 C 22.825 9.867 23.192 10.405 23.466 11.039 C 23.466 10.375 23.775 9.273 22.299 8.141 C 22.299 8.141 26.205 8.954 26.298 12.971 C 26.298 13.664 25.892 14.377 25.632 14.637 C 25.632 14.637 25.453 14.791 25.564 15.016 C 25.673 15.241 25.946 15.188 26.315 14.939 C 26.683 14.691 27.295 14.266 27.295 14.899 M 21.797 17.137 C 21.797 17.137 20.741 19.136 19.304 19.136 C 18.718 19.136 18.299 18.717 18.299 18.136 C 18.299 17.556 19.01 15.479 22.099 15.479 C 22.838 15.479 23.416 15.614 23.416 16.06 C 23.416 16.505 22.715 17.273 21.797 17.137 M 21.8 7.144 C 21.8 7.144 21.393 7.063 21.523 6.453 C 21.588 6.247 21.633 6.25 21.633 5.935 C 21.633 5.62 21.716 5.252 21.967 5.145 C 21.967 5.145 22.395 5.145 22.395 6.269 C 22.395 6.755 21.8 7.144 21.8 7.144 M 20.466 7.139 C 19.869 7.075 20.294 6.11 19.865 6.051 C 19.7 6.028 19.661 7.144 19.466 6.973 C 19.082 6.635 19.366 5.946 19.406 5.623 C 19.446 5.301 19.603 4.898 19.255 5.141 C 18.908 5.383 18.722 5.894 18.605 6.329 C 18.487 6.764 18.722 6.971 18.884 7.475 C 19.046 7.979 18.746 7.806 18.746 7.806 C 17.128 6.836 18.294 4.793 18.294 4.793 C 18.995 3.595 20.045 3.952 20.045 3.952 C 20.248 4.026 20.299 4.145 20.299 4.4 C 20.299 4.655 20.367 4.736 20.668 4.807 C 20.97 4.879 21.112 5.248 21.112 5.848 C 21.112 6.447 20.732 7.168 20.466 7.139 M 22.95 7.029 L 25.612 7.835 C 25.612 7.835 26.099 8.743 25.116 8.477 C 24.131 8.211 23.17 7.91 23.17 7.91 C 23.17 7.91 22.648 7.643 22.95 7.029 M 9.861 11.04 C 7.973 11.376 7.305 10.797 7.305 10.308 C 7.305 8.816 11.595 7.661 12.802 7.643 C 13.045 8.01 12.617 7.948 12.442 8.502 C 12.267 9.057 11.84 9.233 11.216 9.308 C 10.592 9.383 9.937 9.708 9.525 10.087 C 9.142 10.44 9.525 10.6 10.304 10.376 C 11.066 10.157 11.158 10.484 11.47 10.368 C 11.781 10.253 11.504 9.876 11.636 9.808 C 11.838 9.703 12.254 9.987 12.254 9.987 L 13.339 10.678 C 13.339 10.678 12.119 11.298 12.034 11.345 C 11.949 11.392 11.803 11.473 11.803 11.64 C 11.803 11.904 12.478 11.807 12.71 11.807 C 12.942 11.807 12.977 12.186 12.977 12.186 C 12.623 12.596 11.7 12.599 11.7 12.599 C 11.905 13.035 13.068 12.964 13.302 12.972 C 13.537 12.981 13.561 13.311 13.68 13.85 C 13.799 14.389 14.552 14.619 14.552 14.619 C 14.795 15.418 13.834 15.65 13.197 15.65 C 9.467 15.65 9.861 11.04 9.861 11.04 M 10.287 5.109 C 10.235 5.103 10.193 5.062 10.186 5.01 C 9.984 3.516 10.639 1.695 10.639 1.695 C 10.639 1.695 9.049 2.978 9.111 5.029 C 7.761 4.994 5.777 5.141 4.605 6.142 C 2.964 7.543 2.694 10.188 2.651 10.883 C 2.649 10.922 2.626 10.956 2.593 10.974 C 2.558 10.992 2.517 10.99 2.484 10.97 C 2.097 10.737 1.185 9.965 1.841 8.14 C 2.659 5.865 5.185 1.144 10.223 0.825 C 10.223 0.825 11.765 0.76 12.806 1.313 C 12.84 1.331 12.863 1.366 12.867 1.404 C 12.87 1.443 12.854 1.481 12.824 1.505 C 12.391 1.848 11.05 3.05 10.568 5.041 C 10.555 5.097 10.5 5.135 10.441 5.128 C 10.401 5.122 10.349 5.117 10.287 5.109 M 14.032 11.375 C 14.032 11.375 14.497 13.411 15.433 14.131 C 15.433 14.131 15.398 14.337 15.103 14.337 C 14.808 14.337 14.252 13.865 14.032 12.764 C 13.812 11.664 14.032 11.375 14.032 11.375 M 15.434 6.315 C 14.252 6.315 13.731 5.311 13.731 5.311 C 13.731 5.311 15.086 6.593 16.968 5.551 C 16.968 5.551 16.615 6.315 15.434 6.315 M 29.946 8.012 C 29.647 7.405 29.182 6.916 28.291 6.697 C 27.425 6.484 26.661 6.593 26.137 7.05 L 24.402 6.461 C 24.206 6.035 24.043 5.646 23.925 5.311 C 23.826 5.028 23.629 4.792 23.368 4.643 C 22.233 3.996 19.159 2.459 17.967 4.03 C 17.967 4.03 17.905 4.099 17.82 4.225 L 17.448 4.099 C 17.256 3.429 16.622 2.915 15.742 2.7 C 15.202 2.567 14.669 2.6 14.228 2.763 C 13.907 2.881 13.891 3.257 14.214 3.37 L 15.598 3.856 C 15.912 3.966 16.078 4.31 15.967 4.624 L 15.966 4.628 C 15.856 4.942 15.512 5.107 15.198 4.997 C 15.198 4.997 14.317 4.737 13.698 4.553 C 13.373 4.456 13.074 4.76 13.171 5.086 C 13.37 5.749 14.022 6.337 14.894 6.551 C 15.635 6.732 16.359 6.603 16.858 6.256 L 17.182 6.367 C 17.207 7.12 17.789 8.02 18.333 8.343 C 19.167 8.838 19.931 8.398 20.799 7.975 C 20.799 7.975 22.973 9.712 21.966 14.638 C 19.182 14.931 18.176 15.932 17.165 16.942 C 16.534 16.691 14.62 16.569 13.602 16.803 C 13.891 16.515 14.369 16.174 14.956 15.947 C 15.223 15.843 15.398 15.587 15.398 15.301 C 15.398 15.301 16.673 14.894 16.673 14.426 C 16.673 13.958 15.099 14.005 14.453 10.64 C 14.348 10.249 14.229 9.921 13.628 9.64 C 13.628 9.64 13.461 9.288 13.704 8.903 C 13.947 8.517 14.125 8.338 14.061 8.032 C 13.996 7.726 13.546 7.475 13.546 7.475 L 13.546 6.962 C 13.546 6.962 12.258 6.024 12.258 4.68 C 12.258 3.337 14.004 1.723 14.48 1.254 C 14.508 1.227 14.521 1.188 14.515 1.15 C 14.51 1.112 14.484 1.08 14.451 1.06 C 13.838 0.679 12.619 0 10.746 0 C 3.347 0 1.616 6.638 0.029 9.863 C -0.006 9.934 -0.011 10.017 0.024 10.088 C 1.607 13.246 4.163 12.988 4.303 15.636 C 4.415 17.753 3.92 17.8 3.426 17.756 C 3.104 17.726 2.629 17.437 2.341 17.242 C 2.302 17.215 2.249 17.216 2.211 17.245 C 2.173 17.273 2.157 17.323 2.173 17.369 C 2.365 17.946 2.937 19.136 4.57 19.136 C 5.402 19.136 5.666 18.382 5.666 17.687 L 5.666 15.294 C 5.666 15.059 5.588 14.835 5.41 14.681 C 4.846 14.197 3.649 13.036 3.649 12.004 C 3.649 11.563 3.941 11.334 4.284 11.334 C 4.927 11.334 5.549 12.3 6.031 13.519 C 6.144 13.803 6.306 14.004 6.453 14.103 C 6.476 14.119 6.507 14.118 6.529 14.102 C 6.552 14.085 6.562 14.057 6.554 14.03 C 6.355 13.324 6.289 12.585 6.268 12.221 C 6.26 12.077 6.193 11.943 6.084 11.849 C 5.607 11.442 4.315 10.162 4.315 8.249 C 4.315 5.672 8.418 5.888 9.246 5.958 C 9.492 6.817 10.006 7.19 10.35 7.347 C 9.108 7.804 6.307 8.723 6.307 10.308 C 6.307 12.009 9.115 11.885 9.115 11.885 C 9.115 11.885 8.668 15.28 11.831 16.304 C 11.831 16.304 11.338 16.803 9.639 16.803 C 8.053 16.803 7.28 16.096 6.903 15.26 C 6.887 15.225 6.852 15.203 6.813 15.204 C 6.775 15.205 6.741 15.228 6.726 15.264 C 6.64 15.48 6.571 15.872 6.871 16.362 C 7.337 17.123 7.939 17.56 7.939 18.526 C 7.939 19.24 7.298 19.688 7.035 19.842 C 7.018 19.852 7.008 19.871 7.012 19.892 C 7.014 19.911 7.028 19.926 7.048 19.931 C 7.671 20.082 10.505 20.794 12.413 21.7 C 12.428 21.707 12.446 21.706 12.46 21.697 C 12.674 21.562 14.324 20.484 14.419 19.062 C 14.419 19.062 14.544 18.133 13.156 17.966 C 13.156 17.966 13.757 17.733 14.843 17.733 C 15.926 17.733 17.109 18.612 14.979 22.989 C 14.968 23.011 14.976 23.038 14.997 23.052 C 15.324 23.257 17.747 24.803 19.296 26.306 C 19.331 26.34 19.379 26.357 19.429 26.354 C 19.477 26.35 19.523 26.326 19.552 26.286 C 19.752 26.021 20.14 25.312 20.424 23.567 C 20.45 23.406 20.568 23.274 20.724 23.229 C 21.649 22.962 24.818 21.935 26.205 20.027 C 27.838 17.78 28.405 17.538 28.405 17.538 C 28.405 17.538 29.474 16.939 29.021 15.355 C 28.785 14.529 27.54 12.36 26.316 10.14 C 26.598 10.342 26.936 10.501 27.313 10.594 C 28.057 10.776 28.786 10.662 29.309 10.336 C 29.424 10.264 29.488 10.132 29.473 9.998 C 29.457 9.863 29.367 9.749 29.238 9.704 L 27.861 9.221 C 27.529 9.105 27.354 8.741 27.47 8.409 L 27.472 8.403 C 27.589 8.071 27.952 7.896 28.285 8.012 L 29.515 8.443 C 29.637 8.487 29.774 8.455 29.866 8.364 C 29.958 8.272 30.004 8.129 29.946 8.012 Z" fill="currentColor" fill-rule="evenodd"></path></g>
  <path transform="translate(11.117,11.957)" d="M 0.426 0 C 0.426 0 -0.122 0.145 0.025 0.902 C 0.173 1.664 0.793 1.684 0.793 1.684 C 0.254 1.057 0.426 0 0.426 0" fill-rule="evenodd"></path>
  <path transform="translate(1.604,22.326)" d="M 0.768 0.151 C 2.664 1.226 6.85 2.475 7.726 4.725 C 7.726 4.725 8.024 5.226 6.372 5.226 C 5.12 5.226 4.783 4.921 3.894 3.892 C 2.588 2.383 0 1.503 0 0.338 C 0 0.338 0.017 -0.275 0.768 0.151" fill-rule="evenodd"></path>
  <g transform="translate(34.28,7.121)">
      <g transform="translate(0,0.043)"><path d="M 7.623 3.641 C 7.01 3.131 6.227 2.791 5.411 2.791 C 4.798 2.791 3.981 3.148 3.981 3.863 C 3.981 4.611 4.884 4.9 5.462 5.087 L 6.313 5.343 C 8.099 5.87 9.478 6.772 9.478 8.848 C 9.478 10.125 9.171 11.434 8.151 12.302 C 7.146 13.153 5.802 13.51 4.509 13.51 C 2.892 13.51 1.31 12.966 0 12.047 L 1.429 9.358 C 2.263 10.09 3.25 10.686 4.39 10.686 C 5.172 10.686 6.006 10.295 6.006 9.392 C 6.006 8.457 4.696 8.133 3.981 7.93 C 1.889 7.334 0.511 6.789 0.511 4.305 C 0.511 1.702 2.365 0 4.934 0 C 6.227 0 7.81 0.409 8.95 1.055 L 7.623 3.641 Z" fill="currentColor" fill-rule="evenodd"></path></g>
      <path transform="translate(10.103,4.252)" d="M 6.739 3.388 C 6.586 2.514 5.82 2.01 4.987 2.01 C 4.085 2.01 3.336 2.514 3.148 3.388 L 6.739 3.388 Z M 9.6 5.136 L 3.096 5.136 C 3.096 6.399 3.76 7.088 5.036 7.088 C 5.7 7.088 6.177 6.884 6.517 6.301 L 9.494 6.301 C 9.001 8.438 7.045 9.303 5.054 9.303 C 2.161 9.303 0 7.672 0 4.66 C 0 1.751 1.984 0 4.826 0 C 7.854 0 9.6 1.873 9.6 4.851 L 9.6 5.136 Z" fill-rule="evenodd"></path>
      <path transform="translate(20.51,4.633)" d="M 3.011 1.651 L 3.077 1.651 C 3.672 0.389 4.693 0 5.901 0 L 6.506 0 L 6.506 2.967 C 6.021 2.728 5.652 2.677 5.175 2.677 C 3.457 2.677 3.011 3.817 3.011 5.315 L 3.011 8.838 L 0 8.838 L 0 0.098 L 3.011 0.098 L 3.011 1.651 Z" fill-rule="evenodd"></path>
      <path transform="translate(26.463,4.732)" d="M 5.564 4.475 L 7.64 0 L 11.111 0 L 6.551 8.74 L 4.577 8.74 L 0 0 L 3.471 0 L 5.564 4.475 Z" fill-rule="evenodd"></path>
      <path transform="translate(37.726,0)" d="M 0.167 13.472 L 3.372 13.472 L 3.372 4.732 L 0.167 4.732 L 0.167 13.472 Z M 3.471 1.736 C 3.471 2.688 2.688 3.471 1.736 3.471 C 0.783 3.471 0 2.688 0 1.736 C 0 0.783 0.783 0 1.736 0 C 2.688 0 3.471 0.783 3.471 1.736 L 3.471 1.736 Z" fill-rule="evenodd"></path>
      <path transform="translate(41.975,4.252)" d="M 6.958 3.131 C 6.472 2.791 5.933 2.518 5.337 2.518 C 4.146 2.518 3.199 3.437 3.199 4.645 C 3.199 5.904 4.117 6.789 5.393 6.789 C 5.938 6.789 6.472 6.568 6.958 6.193 L 6.958 8.814 C 6.181 9.154 5.507 9.307 4.758 9.307 C 2.172 9.307 0 7.384 0 4.747 C 0 1.94 2.16 0 4.9 0 C 5.614 0 6.375 0.17 6.958 0.511 L 6.958 3.131 Z" fill-rule="evenodd"></path>
      <path transform="translate(49.74,4.252)" d="M 6.739 3.388 C 6.585 2.514 5.82 2.01 4.986 2.01 C 4.084 2.01 3.335 2.514 3.148 3.388 L 6.739 3.388 Z M 9.584 5.136 L 3.096 5.136 C 3.096 6.399 3.76 7.088 5.036 7.088 C 5.7 7.088 6.177 6.884 6.517 6.301 L 9.494 6.301 C 9.001 8.438 7.045 9.303 5.053 9.303 C 2.161 9.303 0 7.672 0 4.66 C 0 1.751 1.976 0 4.817 0 C 7.846 0 9.584 1.873 9.584 4.851 L 9.584 5.136 Z" fill-rule="evenodd"></path>
      <path transform="translate(59.453,0.652)" d="M 6.021 12.819 L 2.816 12.819 L 2.816 2.817 L 0 2.817 L 0 0 L 8.837 0 L 8.837 2.817 L 6.021 2.817 L 6.021 12.819 Z" fill-rule="evenodd"></path>
      <path transform="translate(68.788,0)" d="M 0.183 13.472 L 3.291 13.472 L 3.291 4.732 L 0.183 4.732 L 0.183 13.472 Z M 3.471 1.736 C 3.471 2.688 2.689 3.471 1.736 3.471 C 0.784 3.471 0 2.688 0 1.736 C 0 0.783 0.784 0 1.736 0 C 2.689 0 3.471 0.783 3.471 1.736 L 3.471 1.736 Z" fill-rule="evenodd"></path>
      <path transform="translate(73.048,2.107)" d="M 4.079 11.362 L 0.971 11.362 L 0.971 5.147 L 0 5.147 L 0 2.622 L 0.971 2.622 L 0.971 0 L 4.079 0 L 4.079 2.622 L 5.827 2.622 L 5.827 5.147 L 4.079 5.147 L 4.079 11.362 Z" fill-rule="evenodd"></path>
      <path transform="translate(78.797,4.451)" d="M 3.199 4.663 C 3.199 5.769 3.931 6.62 5.19 6.62 C 6.449 6.62 7.181 5.769 7.181 4.663 C 7.181 3.591 6.449 2.69 5.19 2.69 C 3.931 2.69 3.199 3.591 3.199 4.663 L 3.199 4.663 Z M 10.176 9.019 L 7.069 9.019 L 7.069 8.047 L 7.044 8.047 C 6.5 8.921 5.427 9.307 4.407 9.307 C 1.82 9.307 0 7.145 0 4.645 C 0 2.143 1.781 0 4.368 0 C 5.372 0 6.389 0.374 7.069 1.14 L 7.069 0.279 L 10.176 0.279 L 10.176 9.019 Z" fill-rule="evenodd"></path>
      <path transform="translate(89.944,4.467)" d="M 3.108 1.428 L 3.173 1.428 C 3.888 0.36 4.744 0 5.952 0 C 8.301 0 9.225 1.464 9.225 3.609 L 9.225 9.003 L 6.118 9.003 L 6.118 4.748 C 6.118 3.914 6.255 2.451 4.724 2.451 C 3.464 2.451 3.108 3.387 3.108 4.476 L 3.108 9.003 L 0 9.003 L 0 0.263 L 3.108 0.263 L 3.108 1.428 Z" fill-rule="evenodd"></path>
      <g transform="translate(99.793,3.385)"><path d="M 1.027 0.859 L 1.027 1.248 L 1.285 1.248 C 1.491 1.248 1.773 1.277 1.773 1.071 C 1.773 0.878 1.612 0.859 1.429 0.859 L 1.027 0.859 Z M 1.973 2.12 L 1.722 2.12 L 1.334 1.44 L 1.027 1.44 L 1.027 2.12 L 0.833 2.12 L 0.833 0.566 L 1.471 0.566 C 1.746 0.566 1.994 0.666 1.994 0.985 C 1.994 1.284 1.791 1.403 1.588 1.409 L 1.973 2.12 Z M 0.221 1.351 C 0.221 1.987 0.737 2.482 1.355 2.482 C 1.974 2.482 2.489 1.987 2.489 1.351 C 2.489 0.712 1.974 0.221 1.355 0.221 C 0.737 0.221 0.221 0.712 0.221 1.351 L 0.221 1.351 Z M 0 1.351 C 0 0.598 0.597 0 1.354 0 C 2.11 0 2.708 0.598 2.708 1.351 C 2.708 2.103 2.11 2.701 1.354 2.701 C 0.597 2.701 0 2.103 0 1.351 L 0 1.351 Z" fill="currentColor" fill-rule="evenodd"></path></g>
  </g>
</svg>