<svg width="66" height="66" viewBox="0 0 66 66" fill="none" xmlns="http://www.w3.org/2000/svg">
<circle opacity="0.1" cx="24.5" cy="24.3872" r="8.5" fill="#113064"></circle>
<path fill-rule="evenodd" clip-rule="evenodd" d="M41.6625 20.1376H24.2V19.0376H41.6625C45.9151 19.0376 49.3625 22.485 49.3625 26.7376C49.3625 30.9902 45.9151 34.4376 41.6625 34.4376H24.2C20.5549 34.4376 17.6 37.3925 17.6 41.0376C17.6 44.6827 20.5549 47.6376 24.2 47.6376H41.8V48.7376H24.2C19.9474 48.7376 16.5 45.2902 16.5 41.0376C16.5 36.785 19.9474 33.3376 24.2 33.3376H41.6625C45.3076 33.3376 48.2625 30.3827 48.2625 26.7376C48.2625 23.0925 45.3076 20.1376 41.6625 20.1376Z" fill="#113064"></path>
<path d="M17.3252 17.6626H18.9752C19.4308 17.6626 19.8002 18.032 19.8002 18.4876V20.6876C19.8002 21.1432 19.4308 21.5126 18.9752 21.5126H17.3252V17.6626Z" fill="#0265DC" stroke="#113064" stroke-width="1.1"></path>
<path d="M48.6748 46.2627H47.0248C46.5692 46.2627 46.1998 46.6321 46.1998 47.0877V49.2877C46.1998 49.7433 46.5692 50.1127 47.0248 50.1127H48.6748V46.2627Z" fill="#FFB2A0" stroke="#113064" stroke-width="1.1"></path>
<rect x="21.4502" y="19.0376" width="1.65" height="1.1" fill="#113064"></rect>
<rect x="42.9004" y="47.6377" width="1.65" height="1.1" fill="#113064"></rect>
<circle cx="33" cy="33.8877" r="8.25" fill="#B5DEFF" stroke="#113064" stroke-width="1.1"></circle>
<path d="M34.5121 29.625L30.6621 33.8875H35.3371L31.4871 38.15" stroke="#113064" stroke-width="1.1"></path>
</svg>