<svg width="66" height="66" viewBox="0 0 66 66" fill="none" xmlns="http://www.w3.org/2000/svg">
<circle opacity="0.1" cx="48.5" cy="20.5" r="8.5" fill="#113064"></circle>
<mask id="path-3-outside-1_4022_35739" maskUnits="userSpaceOnUse" x="24.3005" y="43.3757" width="18" height="6" fill="black">
<rect fill="white" x="24.3005" y="43.3757" width="18" height="6"></rect>
<path d="M40.4773 44.3757C40.5772 44.6927 40.7009 45.2655 40.7009 46.1628C40.7007 46.9782 40.5647 47.5901 40.4548 47.9509H25.5662C25.4489 47.544 25.3005 46.8848 25.3005 46.1628C25.3006 45.4409 25.4491 44.7821 25.5662 44.3757H40.4773Z"></path>
</mask>
<path d="M40.4773 44.3757C40.5772 44.6927 40.7009 45.2655 40.7009 46.1628C40.7007 46.9782 40.5647 47.5901 40.4548 47.9509H25.5662C25.4489 47.544 25.3005 46.8848 25.3005 46.1628C25.3006 45.4409 25.4491 44.7821 25.5662 44.3757H40.4773Z" fill="#FFB2A0"></path>
<path d="M40.4773 44.3757L41.4216 44.0783L41.2034 43.3857H40.4773V44.3757ZM40.7009 46.1628L41.6909 46.1631V46.1628L40.7009 46.1628ZM40.4548 47.9509V48.9409H41.1883L41.4019 48.2392L40.4548 47.9509ZM25.5662 47.9509L24.6149 48.2252L24.8213 48.9409H25.5662V47.9509ZM25.3005 46.1628L24.3105 46.1628V46.1628H25.3005ZM25.5662 44.3757V43.3857H24.8211L24.6148 44.1017L25.5662 44.3757ZM40.4773 44.3757L39.533 44.6732C39.6 44.8859 39.7109 45.3576 39.7109 46.1629L40.7009 46.1628L41.6909 46.1628C41.6909 45.1734 41.5543 44.4996 41.4216 44.0783L40.4773 44.3757ZM40.7009 46.1628L39.7109 46.1626C39.7107 46.8674 39.5932 47.3819 39.5077 47.6626L40.4548 47.9509L41.4019 48.2392C41.5362 47.7982 41.6907 47.0889 41.6909 46.1631L40.7009 46.1628ZM40.4548 47.9509V46.9609H25.5662V47.9509V48.9409H40.4548V47.9509ZM25.5662 47.9509L26.5174 47.6767C26.4148 47.3208 26.2905 46.7592 26.2905 46.1628H25.3005H24.3105C24.3105 47.0103 24.4829 47.7673 24.6149 48.2252L25.5662 47.9509ZM25.3005 46.1628L26.2905 46.1629C26.2906 45.5667 26.415 45.0057 26.5175 44.6498L25.5662 44.3757L24.6148 44.1017C24.4832 44.5585 24.3106 45.3151 24.3105 46.1628L25.3005 46.1628ZM25.5662 44.3757V45.3657H40.4773V44.3757V43.3857H25.5662V44.3757Z" fill="#113064" mask="url(#path-3-outside-1_4022_35739)"></path>
<rect x="26.3989" y="47.9512" width="2.52551" height="3.3" rx="0.6875" fill="#113064"></rect>
<rect x="37.124" y="47.9512" width="2.52551" height="3.3" rx="0.6875" fill="#113064"></rect>
<path d="M36.9602 39.2056L37.0803 39.5278L38.4143 43.103L38.6633 43.771H27.3372L27.5862 43.103L28.9202 39.5278L29.0403 39.2056H36.9602Z" fill="white" stroke="#113064" stroke-width="0.99"></path>
<rect x="13.42" y="29.7457" width="39.435" height="21.835" stroke="#113064" stroke-width="0.99"></rect>
<rect x="17.82" y="29.7457" width="30.635" height="21.835" stroke="#113064" stroke-width="0.99"></rect>
<rect x="17.82" y="29.7457" width="30.635" height="8.91" fill="#B5DEFF" stroke="#113064" stroke-width="0.99"></rect>
<path d="M54.9307 30.9561H11.0693L33 13.9268L54.9307 30.9561Z" fill="#0265DC" stroke="#113064" stroke-width="0.99"></path>
<ellipse cx="27.3622" cy="46.0259" rx="0.9625" ry="0.825" fill="#113064"></ellipse>
<ellipse cx="38.6371" cy="46.0259" rx="0.9625" ry="0.825" fill="#113064"></ellipse>
<path d="M22 34.6133H44" stroke="#113064" stroke-width="0.99" stroke-linecap="square"></path>
</svg>