<svg width="66" height="66" viewBox="0 0 66 66" fill="none" xmlns="http://www.w3.org/2000/svg">
<path opacity="0.1" fill-rule="evenodd" clip-rule="evenodd" d="M22 23.5C22 18.8055 18.1945 15 13.5 15C8.80548 15 5 18.8055 5 23.5C5 28.1945 8.80548 32 13.5 32C18.1945 32 22 28.1945 22 23.5" fill="#113064"></path>
<path d="M49.1218 20.5847H53.6237" stroke="#113064" stroke-width="0.825"></path>
<path d="M49.1218 26.1255H53.6237" stroke="#113064" stroke-width="0.825"></path>
<path d="M49.1218 23.355H51.8922" stroke="#113064" stroke-width="0.825"></path>
<path d="M49.1218 28.8958H51.8922" stroke="#113064" stroke-width="0.825"></path>
<path d="M49.1218 31.6663H53.6237" stroke="#113064" stroke-width="0.825"></path>
<circle cx="43.9276" cy="42.055" r="4.64444" fill="#FFB2A0" stroke="#113064" stroke-width="1.1"></circle>
<mask id="path-9-inside-1_4022_36083" fill="white">
<path d="M43.9277 16.7754C46.0314 16.7756 47.7363 18.4813 47.7363 20.585V33.8965C50.8045 35.3314 52.9305 38.4439 52.9307 42.0547C52.9307 47.0272 48.9002 51.0584 43.9277 51.0586C38.9551 51.0586 34.9238 47.0273 34.9238 42.0547C34.924 38.444 37.0501 35.3314 40.1182 33.8965V20.585C40.1182 18.4812 41.8239 16.7754 43.9277 16.7754Z"></path>
</mask>
<path d="M43.9277 16.7754L43.9278 15.6754H43.9277V16.7754ZM47.7363 33.8965H46.6363V34.5964L47.2703 34.8929L47.7363 33.8965ZM52.9307 42.0547H54.0307V42.0546L52.9307 42.0547ZM43.9277 51.0586V52.1586H43.9278L43.9277 51.0586ZM34.9238 42.0547L33.8238 42.0546V42.0547H34.9238ZM40.1182 33.8965L40.5842 34.8929L41.2182 34.5964V33.8965H40.1182ZM43.9277 16.7754L43.9276 17.8754C45.4236 17.8755 46.6363 19.0885 46.6363 20.585H47.7363H48.8363C48.8363 17.874 46.6392 15.6756 43.9278 15.6754L43.9277 16.7754ZM47.7363 20.585H46.6363V33.8965H47.7363H48.8363V20.585H47.7363ZM47.7363 33.8965L47.2703 34.8929C49.9665 36.1538 51.8305 38.8871 51.8307 42.0547L52.9307 42.0547L54.0307 42.0546C54.0305 38.0007 51.6425 34.5089 48.2023 32.9001L47.7363 33.8965ZM52.9307 42.0547H51.8307C51.8307 46.4198 48.2926 49.9585 43.9277 49.9586L43.9277 51.0586L43.9278 52.1586C49.5078 52.1584 54.0307 47.6346 54.0307 42.0547H52.9307ZM43.9277 51.0586V49.9586C39.5626 49.9586 36.0238 46.4198 36.0238 42.0547H34.9238H33.8238C33.8238 47.6348 38.3476 52.1586 43.9277 52.1586V51.0586ZM34.9238 42.0547L36.0238 42.0547C36.0239 38.8872 37.8881 36.1539 40.5842 34.8929L40.1182 33.8965L39.6521 32.9001C36.2122 34.509 33.824 38.0008 33.8238 42.0546L34.9238 42.0547ZM40.1182 33.8965H41.2182V20.585H40.1182H39.0182V33.8965H40.1182ZM40.1182 20.585H41.2182C41.2182 19.0887 42.4315 17.8754 43.9277 17.8754V16.7754V15.6754C41.2164 15.6754 39.0182 17.8737 39.0182 20.585H40.1182Z" fill="#113064" mask="url(#path-9-inside-1_4022_36083)"></path>
<path d="M43.9275 37.5532V29.5884" stroke="#113064" stroke-width="1.1"></path>
<path d="M26.8474 20.5847H31.3493" stroke="#113064" stroke-width="0.825"></path>
<path d="M26.8474 26.1255H31.3493" stroke="#113064" stroke-width="0.825"></path>
<path d="M26.8474 23.355H29.6178" stroke="#113064" stroke-width="0.825"></path>
<path d="M26.8474 28.8958H29.6178" stroke="#113064" stroke-width="0.825"></path>
<path d="M26.8474 31.6663H31.3493" stroke="#113064" stroke-width="0.825"></path>
<circle cx="21.6529" cy="42.055" r="4.64444" fill="#0265DC" stroke="#113064" stroke-width="1.1"></circle>
<mask id="path-18-inside-2_4022_36083" fill="white">
<path d="M21.6533 16.7754C23.7569 16.7756 25.4619 18.4813 25.4619 20.585V33.8965C28.5301 35.3314 30.6561 38.4439 30.6562 42.0547C30.6562 47.0272 26.6257 51.0584 21.6533 51.0586C16.6807 51.0586 12.6494 47.0273 12.6494 42.0547C12.6495 38.444 14.7757 35.3314 17.8438 33.8965V20.585C17.8438 18.4812 19.5495 16.7754 21.6533 16.7754Z"></path>
</mask>
<path d="M21.6533 16.7754L21.6535 15.6754H21.6533V16.7754ZM25.4619 33.8965H24.3619V34.5964L24.9959 34.8929L25.4619 33.8965ZM30.6562 42.0547H31.7563V42.0546L30.6562 42.0547ZM21.6533 51.0586V52.1586H21.6534L21.6533 51.0586ZM12.6494 42.0547L11.5494 42.0546V42.0547H12.6494ZM17.8438 33.8965L18.3098 34.8929L18.9437 34.5964V33.8965H17.8438ZM21.6533 16.7754L21.6532 17.8754C23.1491 17.8756 24.3619 19.0886 24.3619 20.585H25.4619H26.5619C26.5619 17.874 24.3647 15.6757 21.6535 15.6754L21.6533 16.7754ZM25.4619 20.585H24.3619V33.8965H25.4619H26.5619V20.585H25.4619ZM25.4619 33.8965L24.9959 34.8929C27.6921 36.1538 29.5561 38.8871 29.5562 42.0547L30.6562 42.0547L31.7563 42.0546C31.7561 38.0007 29.3681 34.5089 25.9279 32.9001L25.4619 33.8965ZM30.6562 42.0547H29.5562C29.5562 46.4198 26.0181 49.9584 21.6533 49.9586L21.6533 51.0586L21.6534 52.1586C27.2334 52.1584 31.7563 47.6346 31.7563 42.0547H30.6562ZM21.6533 51.0586V49.9586C17.2882 49.9586 13.7494 46.4198 13.7494 42.0547H12.6494H11.5494C11.5494 47.6348 16.0732 52.1586 21.6533 52.1586V51.0586ZM12.6494 42.0547L13.7494 42.0547C13.7495 38.8872 15.6137 36.1538 18.3098 34.8929L17.8438 33.8965L17.3777 32.9001C13.9377 34.509 11.5496 38.0008 11.5494 42.0546L12.6494 42.0547ZM17.8438 33.8965H18.9437V20.585H17.8438H16.7438V33.8965H17.8438ZM17.8438 20.585H18.9437C18.9437 19.0887 20.157 17.8754 21.6533 17.8754V16.7754V15.6754C18.942 15.6754 16.7438 17.8737 16.7438 20.585H17.8438Z" fill="#113064" mask="url(#path-18-inside-2_4022_36083)"></path>
<path d="M21.7241 37.6755L21.7241 23.3755" stroke="#113064" stroke-width="1.1"></path>
</svg>