<svg width="66" height="66" viewBox="0 0 66 66" fill="none" xmlns="http://www.w3.org/2000/svg">
<rect x="21.2754" y="15.9006" width="11.275" height="1.925" rx="0.9625" fill="#FFB2A0"></rect>
<path d="M14.4004 22.2246L16.9423 23.1871V32.5371L14.4004 33.2246V22.2246Z" fill="#0265DC"></path>
<rect x="37.501" y="35.4253" width="6.05" height="2.2" fill="#0265DC"></rect>
<path opacity="0.1" fill-rule="evenodd" clip-rule="evenodd" d="M51 20.5C51 15.8055 47.1945 12 42.5 12C37.8055 12 34 15.8055 34 20.5C34 25.1945 37.8055 29 42.5 29C47.1945 29 51 25.1945 51 20.5Z" fill="#113064"></path>
<path fill-rule="evenodd" clip-rule="evenodd" d="M24.8105 25.3386H29.0573V24.1057H24.8105V25.3386Z" fill="#113064"></path>
<ellipse cx="40.5" cy="45" rx="2.5" ry="3" fill="#B5DEFF"></ellipse>
<path fill-rule="evenodd" clip-rule="evenodd" d="M38.4868 37.3404H43.4462V35.6407H38.4868V37.3404ZM35.3061 30.2327H18.0294V25.2882H22.6788V23.3441C22.6788 22.3716 23.4727 21.5799 24.4481 21.5799H24.8486H29.808H30.2085C31.1839 21.5799 31.9777 22.3716 31.9777 23.3441V25.2882H36.9508C40.5327 25.2882 43.4464 28.1934 43.4464 31.7646V34.4046H38.487V33.404C38.487 31.6555 37.0599 30.2327 35.3061 30.2327V30.2327ZM16.7895 31.7778C16.7895 32.1187 16.5114 32.3959 16.1695 32.3959H15.2396V23.125H16.1695C16.5114 23.125 16.7895 23.4022 16.7895 23.7431V24.0521V31.4688V31.7778ZM26.0887 20.3437H28.5684V18.7986H26.0887V20.3437ZM22.0588 16.79C22.0588 16.3642 22.4063 16.0174 22.8337 16.0174H31.8226C32.2501 16.0174 32.5975 16.3642 32.5975 16.79C32.5975 17.2162 32.2501 17.5626 31.8226 17.5626H22.8337C22.4063 17.5626 22.0588 17.2162 22.0588 16.79V16.79ZM26.0887 14.4723C26.0887 13.7909 26.6448 13.2362 27.3286 13.2362C28.0124 13.2362 28.5684 13.7909 28.5684 14.4723V14.7813H26.0887V14.4723ZM36.9509 24.0522H33.2177V23.3442C33.2177 21.6896 31.8678 20.3438 30.2086 20.3438H29.8081V18.7987H31.8229C32.9338 18.7987 33.8376 17.8975 33.8376 16.79C33.8376 15.6827 32.9338 14.7813 31.8229 14.7813H29.8081V14.4722C29.8081 13.1091 28.6957 12 27.3284 12C25.9612 12 24.8487 13.1091 24.8487 14.4722V14.7813H22.8339C21.723 14.7813 20.8192 15.6827 20.8192 16.79C20.8192 17.8975 21.723 18.7987 22.8339 18.7987H24.8487V20.3438H24.4482C22.789 20.3438 21.4391 21.6896 21.4391 23.3442V24.0522H18.0295V23.7431C18.0295 22.7209 17.1954 21.889 16.1697 21.889H14V33.6321H16.1697C17.1954 33.6321 18.0295 32.8005 18.0295 31.7779V31.4689H35.3062C36.3765 31.4689 37.2472 32.3369 37.2472 33.404V38.5766H44.6863V31.7646C44.6863 27.5121 41.2163 24.0522 36.9509 24.0522V24.0522Z" fill="#113064"></path>
<path fill-rule="evenodd" clip-rule="evenodd" d="M42.1207 47.0128C41.262 47.8804 39.8653 47.8804 39.0066 47.0128C38.1482 46.1452 38.1482 44.734 39.0066 43.8664L40.5637 42.2932L42.1207 43.8664C42.9791 44.734 42.9791 46.1452 42.1207 47.0128V47.0128ZM40.5635 40.5442L38.1407 42.9921C36.8047 44.3417 36.8047 46.5385 38.1407 47.888C38.8087 48.563 39.6861 48.9007 40.5635 48.9007C41.4409 48.9007 42.3183 48.563 42.9863 47.888C44.3223 46.5385 44.3223 44.3417 42.9863 42.9921L40.5635 40.5442Z" fill="#113064"></path>
</svg>