<svg width="66" height="66" viewBox="0 0 66 66" fill="none" xmlns="http://www.w3.org/2000/svg">
<rect x="39.3252" y="21.8628" width="12.375" height="2.2" fill="#FFB2A0"></rect>
<rect x="33" y="24.6128" width="12.375" height="2.2" fill="#FFB2A0"></rect>
<rect x="39.875" y="24.6128" width="12.375" height="2.2" fill="#FFB2A0"></rect>
<rect x="12.9248" y="30.1128" width="7.15" height="2.2" fill="#0265DC"></rect>
<rect x="12.9248" y="32.5874" width="13.475" height="2.2" fill="#0265DC"></rect>
<g opacity="0.2">
<mask id="path-7-inside-1_4022_35782" fill="white">
<rect x="29.4248" y="11.1372" width="7.425" height="8.525" rx="0.825"></rect>
</mask>
<rect x="29.4248" y="11.1372" width="7.425" height="8.525" rx="0.825" stroke="#113064" stroke-width="2.2" mask="url(#path-7-inside-1_4022_35782)"></rect>
</g>
<circle opacity="0.1" cx="19.1129" cy="18.4249" r="7.8375" fill="#113064"></circle>
<path opacity="0.2" d="M15.6748 41.1128V55.4128M50.5998 41.1128V55.4128" stroke="#113064" stroke-width="1.1"></path>
<path d="M12.2379 37.2622H53.7629L54.8629 42.7622H11.2754L12.2379 37.2622Z" fill="white"></path>
<path d="M15.6573 16.9126H50.5016L51.4246 21.8626H14.8496L15.6573 16.9126Z" fill="white"></path>
<path d="M18.0735 42.7622H11.9824C11.4697 42.7622 11.0812 42.2996 11.1698 41.7946L11.4585 40.1497M18.0735 42.7622H25.016H33.1375M18.0735 42.7622L18.425 40.1497M27.5049 16.6372H21.4793H16.2775C15.8769 16.6372 15.5342 16.925 15.4649 17.3196L15.1491 19.1191M27.5049 16.6372H33.1375H38.9011M27.5049 16.6372V19.1191M33.1375 42.7622H40.735H48.005M33.1375 42.7622L33.111 40.1497M54.3319 37.5372L54.8034 40.1497L55.0996 41.7907C55.191 42.2968 54.802 42.7622 54.2878 42.7622H48.005M48.005 42.7622L47.7692 40.1497M51.4789 21.7316L51.0073 19.1191L50.6818 17.3157C50.6109 16.9229 50.269 16.6372 49.8699 16.6372H44.4027H38.9011M38.9011 16.6372V19.1191M14.2322 24.3441L14.6907 21.7316L15.1491 19.1191M15.1491 19.1191H21.327M51.0073 19.1191H44.6875M14.6907 21.7316H20.9M51.4789 21.7316L51.9504 24.3441M51.4789 21.7316H44.9625M13.2923 29.6997L13.7737 26.9566L14.2322 24.3441M14.2322 24.3441H20.6599M52.9172 29.6997L52.422 26.9566L51.9504 24.3441M51.9504 24.3441H45.5972M13.7737 26.9566H20.4875M52.422 26.9566H45.925M12.3754 34.9247L12.8568 32.1816L13.2923 29.6997M13.2923 29.6997H20.0524M53.8603 34.9247L53.3652 32.1816L52.9172 29.6997M52.9172 29.6997H46.391M12.8568 32.1816H19.8M53.3652 32.1816H46.75M12.3754 34.9247L11.9169 37.5372M12.3754 34.9247H19.319M53.8603 34.9247L54.3319 37.5372M53.8603 34.9247H47.0739M11.9169 37.5372L11.4585 40.1497M11.9169 37.5372H19.1125M54.3319 37.5372H47.4375M11.4585 40.1497H18.425M54.8034 40.1497H47.7692M27.5049 19.1191H21.327M27.5049 19.1191H33.1375M38.9011 19.1191H33.1375M38.9011 19.1191H44.6875M20.9 21.7316L21.327 19.1191M20.9 21.7316H33.1375M33.1375 21.7316V19.1191M33.1375 21.7316H39.05M44.9625 21.7316L44.6875 19.1191M44.9625 21.7316H39.05M27.0875 24.3441L27.225 21.7247M27.0875 24.3441H20.6599M27.0875 24.3441H33.1657M39.05 21.7316L39.244 24.3441M39.244 24.3441H33.1657M39.244 24.3441H45.5972M20.6599 24.3441L20.4875 26.9566M20.4875 26.9566H26.8125M33.1657 24.3441L33.1375 26.9566M33.1375 26.9566H26.8125M33.1375 26.9566H39.5313M45.5972 24.3441L45.925 26.9566M45.925 26.9566H39.5313M26.8125 29.6997V26.9566M26.8125 29.6997H20.0524M26.8125 29.6997H33.111M39.5313 26.9566L39.8648 29.6997M39.8648 29.6997H33.111M39.8648 29.6997H46.391M20.0524 29.6997L19.8 32.1816M33.111 32.1816V29.6997M33.111 32.1816H26.4555M33.111 32.1816H39.9305M19.8 32.1816H26.4555M46.391 29.6997L46.75 32.1816M46.75 32.1816H39.9305M26.4555 32.1816L26.2625 34.9247M26.2625 34.9247H19.319M26.2625 34.9247H33.275M39.9305 32.1816L40.2875 34.9247M40.2875 34.9247H33.275M40.2875 34.9247H47.0739M19.319 34.9247L19.1125 37.5372M19.1125 37.5372H26.1938M33.275 34.9247V37.5372M33.275 37.5372H26.1938M33.275 37.5372H40.3563M47.0739 34.9247L47.4375 37.5372M47.4375 37.5372H40.3563M26.1938 37.5372L25.9875 40.1497M25.9875 40.1497H18.425M25.9875 40.1497H33.111M40.3563 37.5372L40.735 40.1497M40.735 40.1497H33.111M40.735 40.1497H47.7692" stroke="#113064" stroke-width="1.1"></path>
<g opacity="0.2">
<mask id="path-13-inside-2_4022_35782" fill="white">
<rect x="19.5254" y="44.687" width="7.7" height="8.8" rx="0.825"></rect>
</mask>
<rect x="19.5254" y="44.687" width="7.7" height="8.8" rx="0.825" stroke="#113064" stroke-width="2.2" mask="url(#path-13-inside-2_4022_35782)"></rect>
</g>
<g opacity="0.2">
<mask id="path-14-inside-3_4022_35782" fill="white">
<rect x="39.3252" y="44.687" width="7.425" height="8.8" rx="0.825"></rect>
</mask>
<rect x="39.3252" y="44.687" width="7.425" height="8.8" rx="0.825" stroke="#113064" stroke-width="2.2" mask="url(#path-14-inside-3_4022_35782)"></rect>
</g>
</svg>